<svg width="536" height="143" viewBox="0 0 536 143" fill="none" xmlns="http://www.w3.org/2000/svg">
<path d="M440.984 22.1138C441.393 21.2035 441.997 20.8961 442.793 21.1919C443.078 21.2943 443.282 21.4086 443.396 21.5337L444.249 22.2163C444.773 22.8081 445.069 23.2518 445.171 23.5249C445.273 23.8094 445.148 24.3329 444.784 25.0953C444.102 26.4721 443.464 27.8489 442.838 29.2144C442.212 30.5571 441.575 31.9345 440.904 33.3228C438.207 38.4434 435.715 43.587 433.462 48.7417C431.198 53.8965 428.967 59.1197 426.771 64.4224C426.646 64.7865 426.498 65.1397 426.327 65.481C426.157 65.8336 426.145 66.2315 426.304 66.6978C426.759 66.5499 427.124 66.2888 427.374 65.9361C427.522 65.7199 427.692 65.526 427.852 65.3326C427.829 65.1962 427.817 65.0598 427.806 64.9234C427.863 64.5592 428.012 64.2512 428.262 63.9781C428.421 63.8417 428.569 63.6941 428.728 63.5464C428.967 63.353 429.24 63.2159 429.525 63.1021C430.207 62.1918 430.936 61.225 431.755 60.1441C433.166 58.312 434.77 56.4449 436.557 54.5787C438.355 52.7125 440.21 50.8805 442.167 49.1167C444.124 47.353 446.116 45.862 448.153 44.6558C450.178 43.4496 452.204 42.5966 454.218 42.1187C456.232 41.6294 458.098 41.7204 459.817 42.3462C461.683 43.029 463.117 44.2237 464.118 45.9419C465.12 47.6488 465.473 49.5953 465.165 51.7574C464.869 53.6917 464.3 55.5014 463.481 57.1968C462.65 58.8922 461.728 60.5649 460.704 62.2261C460.306 62.8975 459.85 63.5231 459.35 64.1148C458.849 64.6951 458.36 65.3096 457.882 65.9468C457.7 66.2085 457.529 66.4366 457.381 66.6187C457.233 66.8121 457.211 67.085 457.324 67.4488L457.54 67.5288C457.893 67.6654 458.189 67.6879 458.428 67.6197C458.655 67.5287 458.917 67.4604 459.179 67.3921C461.147 67.1418 463.048 66.9146 464.88 66.687C466.712 66.4595 468.579 66.2999 470.502 66.1861C471.674 66.1292 473.085 66.1406 474.769 66.2203C476.442 66.3113 477.865 66.5619 479.014 66.9829C479.106 67.0184 479.197 67.0599 479.288 67.106C479.309 66.9476 479.33 66.7889 479.355 66.6304C479.651 64.7073 480.072 62.7726 480.618 60.8609C481.654 57.5836 482.86 54.3515 484.237 51.188C485.602 48.0246 487.161 44.9291 488.925 41.9136C489.062 41.5495 489.323 41.0486 489.733 40.3775C490.006 40.0703 490.234 39.7632 490.427 39.4673C490.62 39.1715 490.985 39.0465 491.554 39.0806C492.055 39.2627 492.635 39.5812 493.283 40.0249C493.921 40.4687 494.262 41.0151 494.262 41.6636C494.353 42.1074 494.239 42.5062 493.944 42.8931C492.442 45.1915 491.167 47.6149 490.109 50.1636C489.05 52.7126 487.969 55.2507 486.876 57.7769C485.26 61.4978 484.214 65.3555 483.725 69.3267C483.748 69.4973 483.736 69.8047 483.701 70.2369C483.667 70.6692 483.645 71.1246 483.622 71.6138C483.6 72.103 483.622 72.5356 483.691 72.9224C483.759 73.3093 483.895 73.5488 484.112 73.6285C484.248 73.6853 484.476 73.6399 484.76 73.5035C485.249 73.2872 485.716 73.0249 486.149 72.729C486.581 72.4447 487.059 72.1488 487.571 71.8531C489.539 70.4648 491.474 68.9738 493.363 67.3921C495.251 65.799 497.175 64.2291 499.144 62.6587C500.191 61.8281 501.329 60.8951 502.546 59.8824C503.775 58.8583 505.061 57.8681 506.392 56.9009C507.723 55.9223 509.078 55.034 510.432 54.2261C511.786 53.4182 513.072 52.7929 514.301 52.3492C514.984 52.0305 515.69 52.0074 516.406 52.2691C516.839 52.4284 517.18 52.5994 517.442 52.7701C518.5 53.6462 519.137 54.4199 519.342 55.0572C519.558 55.7058 519.342 56.6508 518.728 57.8912C517.795 59.9962 516.839 62.0901 515.871 64.1724C514.893 66.2547 513.949 68.3599 513.004 70.4537H513.037C511.49 73.7991 510.215 77.179 509.248 80.604C508.27 84.0406 507.565 87.5796 507.11 91.2437C507.11 91.4826 507.075 91.8921 507.041 92.438C507.007 92.9956 506.984 93.5882 507.007 94.2027C507.018 94.8168 507.075 95.3969 507.177 95.9087C507.268 96.4322 507.45 96.7516 507.746 96.854C507.883 96.9109 508.133 96.8532 508.475 96.6939C508.827 96.5346 509.203 96.3305 509.624 96.0689C510.034 95.8073 510.42 95.5681 510.75 95.3179C511.08 95.0792 511.308 94.8966 511.433 94.7828C512.923 93.6107 514.392 92.427 515.86 91.2095C517.316 89.9919 518.773 88.7627 520.218 87.4995C521.652 86.2365 523.086 84.985 524.474 83.7447C525.862 82.5043 527.273 81.2523 528.73 80.0005C529.128 79.5681 529.55 79.2045 529.993 78.8745C530.437 78.5446 530.858 78.18 531.256 77.7476C531.927 77.2583 532.576 77.1336 533.225 77.3726C533.589 77.5091 533.953 77.7139 534.328 78.021C534.704 78.3282 535.046 78.6122 535.353 78.8853C535.944 79.5112 535.899 80.0695 535.228 80.5474C534.113 81.6056 532.952 82.6409 531.757 83.6763C530.562 84.7005 529.367 85.7361 528.172 86.7603C525.726 88.9677 523.257 91.1071 520.731 93.2007C518.216 95.2831 515.53 97.2404 512.662 99.0269C511.729 99.5845 510.693 99.8916 509.567 99.9712C508.44 100.039 507.371 99.9033 506.369 99.5279C505.004 99.0272 504.026 98.1965 503.434 97.0474C502.842 95.8867 502.5 94.6 502.409 93.189C502.33 91.7667 502.375 90.3443 502.58 88.9107C502.774 87.4771 502.967 86.1913 503.149 85.0308C503.479 83.0282 503.969 81.0139 504.64 78.9771C505.311 76.9402 506.108 74.6754 507.03 72.1607C507.473 71.1821 507.974 69.9639 508.554 68.5074C509.134 67.0509 509.84 65.5376 510.648 63.9673C511.057 63.3074 511.388 62.6246 511.638 61.9419C511.888 61.2593 512.139 60.5879 512.366 59.9507C512.469 59.6662 512.377 59.4613 512.093 59.3589L511.98 59.313C511.911 59.2903 511.854 59.3134 511.831 59.3931C511.638 59.4841 511.388 59.5976 511.104 59.7339C510.808 59.8704 510.546 60.019 510.319 60.1783C509.078 61.1113 507.815 62.0672 506.518 63.0572C505.209 64.0358 503.934 65.0372 502.671 66.0386C500.964 67.3699 499.268 68.6897 497.618 69.9869C495.957 71.2954 494.285 72.5702 492.601 73.8218C491.338 74.8232 489.835 75.745 488.106 76.5757C486.376 77.4064 484.692 77.5202 483.03 76.9058C482.029 76.5417 481.164 75.9957 480.458 75.2788C479.741 74.5733 479.321 73.628 479.173 72.4331C479.109 71.7534 479.078 71.0765 479.074 70.4009C478.48 70.3386 477.913 70.2685 477.375 70.1802C476.601 70.0664 475.759 70.0319 474.825 70.1001C469.887 70.2481 464.766 70.7376 459.487 71.6138C454.195 72.49 449.37 74.1967 445.012 76.7456C444.307 77.1324 443.613 77.4968 442.964 77.8267C442.315 78.1567 441.598 78.4758 440.847 78.7603C439.994 79.0902 439.129 79.1013 438.276 78.7828C437.627 78.5438 436.978 78.0661 436.352 77.3492C436.045 77.0648 435.943 76.7686 436.023 76.4273C436.102 76.086 436.307 75.8241 436.625 75.6079C437.114 75.3804 437.592 75.13 438.059 74.857C438.525 74.5839 439.049 74.345 439.607 74.1402C442.736 72.934 445.535 71.2499 447.993 69.0992C450.451 66.9486 452.75 64.559 454.855 61.9078C456.311 60.1667 457.598 58.3341 458.713 56.4224C459.828 54.5108 460.704 52.4511 461.353 50.2437C461.592 49.5951 461.797 48.7297 461.99 47.6714C462.184 46.6021 461.808 45.8849 460.875 45.5435C460.158 45.2818 459.327 45.2481 458.405 45.4302C457.472 45.6237 456.517 45.9079 455.527 46.272C454.537 46.6362 453.603 47.0575 452.738 47.5581C451.862 48.0474 451.157 48.4909 450.611 48.855C447.026 51.2902 443.714 54.0786 440.676 57.2535C437.638 60.4167 434.85 63.7848 432.313 67.3804C429.821 70.8966 427.545 74.5957 425.474 78.4419C425.883 78.6581 426.202 78.9769 426.156 79.523C426.054 80.5925 424.927 81.2409 423.914 81.5708C422.424 84.4839 420.921 87.397 419.624 90.2759C419.374 90.822 419.169 91.4252 418.953 92.0054C418.726 92.4037 418.498 92.8025 418.271 93.2007C411.045 109.12 403.955 125.097 397.173 141.21C396.342 143.168 390.812 143.85 391.939 141.176C398.869 124.722 406.106 108.392 413.502 92.1421C414.003 89.9118 414.504 87.67 415.028 85.4624C415.141 85.0187 415.289 84.5634 415.403 84.1197C412.956 85.0186 410.51 85.9859 408.074 86.771C406.629 87.2376 405.173 87.6357 403.694 87.9771C402.317 88.3071 400.758 88.7057 399.347 88.3531C397.708 87.9434 397.23 86.7259 397.515 85.1783C397.788 83.6422 398.175 82.1288 398.618 80.6382C398.869 79.8076 399.494 79.2266 400.245 78.8511C401.964 75.369 403.739 71.8986 405.606 68.4165C406.141 67.3469 406.675 66.2997 407.21 65.2642C407.734 64.2288 408.245 63.2274 408.769 62.2261C409.065 61.8279 409.076 61.5319 408.769 61.3384C408.564 61.2702 408.371 61.3157 408.155 61.4976C407.233 61.9983 406.311 62.5899 405.389 63.2613C401.11 66.4246 396.855 69.5085 392.633 72.524C388.411 75.5395 384.099 78.5103 379.672 81.4576C378.955 81.9582 378.158 82.4699 377.271 82.982C377.111 83.073 376.952 83.1302 376.792 83.2212C376.519 84.0859 375.393 84.7235 374.654 84.9966C366.642 87.9553 358.801 91.3567 351.155 95.1802C348.253 96.6255 342.62 100.711 339.548 97.6382C338.297 96.398 338.729 94.4869 339.23 93.0191C339.799 91.3805 340.743 89.9009 341.835 88.5581C341.994 88.1485 342.131 87.7269 342.302 87.3287C344.02 83.346 345.909 79.4199 347.991 75.5396C348.708 74.2538 349.46 73.0019 350.234 71.773C350.996 70.5556 351.644 69.2584 352.145 67.8931C351.644 67.7111 350.677 68.0527 349.266 68.9175C347.844 69.7937 346.353 70.8061 344.782 71.9781C343.212 73.1615 341.721 74.3454 340.299 75.5288C338.888 76.7236 337.921 77.5545 337.432 78.021C336.214 79.1248 335.008 80.2282 333.824 81.3433C332.641 82.4584 331.446 83.5285 330.263 84.564C329.762 85.0305 329.273 85.4515 328.818 85.8042C328.351 86.1683 327.862 86.5323 327.316 86.9078C326.747 87.3515 325.984 87.3974 325.051 87.0562C324.05 86.6921 323.264 86.0887 322.706 85.2808C322.16 84.4501 322.013 83.4826 322.263 82.356C322.399 81.5141 322.582 80.7064 322.786 79.9214C323.003 79.1476 323.207 78.3501 323.423 77.5308C324.231 74.891 325.142 72.297 326.166 69.7369C327.19 67.1766 328.305 64.7068 329.523 62.2945C330.342 60.4852 330.831 59.2559 330.99 58.6187C331.15 57.9815 331.081 57.6969 330.82 57.7652C330.387 57.845 329.682 58.2547 328.715 59.0054C327.748 59.7451 326.655 60.6447 325.448 61.7144C324.231 62.7839 322.979 63.9669 321.694 65.2867C320.385 66.5953 319.156 67.8359 317.995 68.9966C316.835 70.1573 315.811 71.227 314.923 72.2056C314.024 73.1842 313.387 73.8783 312.988 74.2994C311.202 76.268 309.29 78.2827 307.219 80.3765C306.332 81.1956 305.365 81.9354 304.261 82.5953C303.169 83.2439 301.973 83.3349 300.676 82.857C300.269 82.7064 299.908 82.5297 299.591 82.3296C298.052 83.8565 296.538 85.3984 295.055 86.9644C292.995 89.1265 290.776 91.1186 288.386 92.9507C287.225 93.8723 285.985 94.7715 284.654 95.6363C283.311 96.501 281.934 97.2181 280.5 97.7984C279.066 98.3673 277.61 98.742 276.108 98.9126C274.628 99.0833 273.127 98.89 271.613 98.3326C268.313 97.115 265.912 94.3383 264.421 89.98C264 88.8991 263.682 87.7839 263.443 86.646C263.204 85.4968 262.976 84.3816 262.726 83.2779C262.658 82.8227 262.567 82.3786 262.498 81.9234C262.419 81.4683 262.248 81.0246 261.997 80.5923C261.611 80.5355 261.304 80.6152 261.065 80.8199C260.826 81.0361 260.586 81.2635 260.324 81.5025C259.073 82.4811 257.844 83.4941 256.626 84.5865C255.42 85.6561 254.18 86.6805 252.928 87.6704C251.517 88.8424 250.095 89.9465 248.661 90.982C247.216 92.0061 245.736 92.9726 244.189 93.8374C243.472 94.2471 242.539 94.6805 241.378 95.147C240.229 95.6135 239.033 96.0117 237.759 96.3531C236.496 96.6943 235.279 96.9105 234.084 97.0357C232.901 97.1495 231.91 97.0698 231.125 96.774L231.148 96.7964C231.005 96.7428 230.843 96.6588 230.66 96.5454C230.524 96.8412 230.39 97.1389 230.249 97.4341C229.714 97.4227 229.179 97.3999 228.645 97.3999C228.429 97.2975 228.212 97.1947 228.007 97.0923C227.973 97.0241 227.95 96.9672 227.916 96.899C227.893 96.8307 227.871 96.7739 227.848 96.7056C227.768 96.2732 227.678 95.8294 227.598 95.397V95.1236C227.598 94.8734 227.62 94.6345 227.643 94.3843C227.666 94.1226 227.711 93.8716 227.745 93.6099C227.757 93.5535 227.757 93.5647 227.757 93.5308C227.78 93.4285 227.802 93.3147 227.836 93.2124C228.03 92.5411 228.281 91.8923 228.554 91.2437C228.77 90.7089 228.735 90.1506 228.599 89.6158C230.226 86.4751 231.876 83.3345 233.64 80.1939C234.175 79.1584 234.699 78.1575 235.234 77.1675C235.757 76.1776 236.269 75.2102 236.792 74.2544C237.088 73.8789 237.076 73.5823 236.746 73.3775C236.53 73.298 236.314 73.3329 236.098 73.5035V73.5142C235.119 73.9694 234.152 74.5045 233.185 75.1304C228.69 78.0435 224.229 80.8773 219.791 83.6538C215.353 86.419 210.802 89.1386 206.148 91.8355C205.435 92.2849 204.626 92.7322 203.724 93.1714C203.705 93.1877 203.688 93.207 203.667 93.2232C203.417 93.4622 202.984 93.7924 202.347 94.2134C200.538 95.4196 198.796 96.6482 197.101 97.8999C195.405 99.163 193.766 100.427 192.185 101.712C190.467 103.112 188.737 104.455 186.996 105.729C185.244 107.015 183.435 108.233 181.569 109.427C180.283 110.338 178.803 111.135 177.154 111.829C175.504 112.523 173.876 112.58 172.26 111.988C170.929 111.487 169.938 110.759 169.301 109.792C168.664 108.824 168.266 107.743 168.107 106.548C167.947 105.342 167.97 104.09 168.175 102.782C168.38 101.462 168.607 100.244 168.858 99.1177C169.939 94.8846 171.338 90.7762 173.033 86.7935C174.74 82.8108 176.619 78.874 178.69 74.9937C179.395 73.7192 180.135 72.456 180.908 71.2271C181.671 70.0095 182.308 68.7118 182.809 67.3462C182.308 67.1642 181.363 67.5061 179.975 68.3824C178.575 69.2585 177.107 70.283 175.56 71.4663C174.001 72.6497 172.533 73.8439 171.133 75.0386C169.745 76.2333 168.79 77.0759 168.312 77.5425C167.106 78.6463 165.921 79.7499 164.749 80.8765C163.577 81.9915 162.406 83.0612 161.234 84.1079C160.744 84.5745 160.266 84.9958 159.811 85.3599C159.356 85.7127 158.866 86.0889 158.331 86.4644C157.774 86.9079 157.034 86.9649 156.113 86.6236C155.134 86.2708 154.36 85.6786 153.825 84.8706C153.291 84.0514 153.143 83.0841 153.405 81.9576C153.552 81.1156 153.734 80.3075 153.939 79.5337C154.144 78.7599 154.36 77.952 154.576 77.1441C155.384 74.5041 156.306 71.9095 157.319 69.3492C158.331 66.789 159.446 64.32 160.653 61.9078C161.472 60.0986 161.962 58.8693 162.121 58.232C162.281 57.5947 162.223 57.3102 161.961 57.3785C161.54 57.4697 160.835 57.8797 159.891 58.6304C158.935 59.3701 157.865 60.2805 156.67 61.3501C155.487 62.4311 154.246 63.6259 152.972 64.9458C151.686 66.2658 150.469 67.5062 149.32 68.6783C148.193 69.8389 147.168 70.9194 146.292 71.898C145.405 72.8766 144.778 73.5824 144.38 74.0035C142.616 75.972 140.728 77.998 138.68 80.1031C137.815 80.9224 136.847 81.6622 135.766 82.3335C134.696 82.9933 133.513 83.0842 132.25 82.6177C130.839 82.0943 129.986 81.2525 129.655 80.0806C129.621 79.9783 129.644 79.8642 129.621 79.7505C128.597 80.4445 127.585 81.1269 126.561 81.8208C124.262 83.3798 121.952 84.9396 119.654 86.4986C117.582 87.9096 115.295 90.0375 112.655 89.9009C110.14 89.7642 108.194 87.2715 108.831 84.7681C109.514 82.0713 110.959 79.3857 112.131 76.8824C113.303 74.3789 114.566 71.9097 115.898 69.4859C116.558 68.2683 117.309 67.1078 118.015 65.9244C115.216 67.7564 112.404 69.6114 109.616 71.398C105.247 74.1859 100.774 76.9391 96.1887 79.6587C95.449 80.1253 94.6296 80.5926 93.6965 81.0591C92.7635 81.5256 91.8189 81.9346 90.8518 82.2759C89.896 82.6173 88.929 82.8336 87.9846 82.9361C87.0287 83.0385 86.1408 82.925 85.2873 82.6177C83.956 82.1284 82.9663 81.3204 82.3518 80.1939C81.7145 79.0673 81.5664 77.7474 81.885 76.2339C82.1695 75.0277 82.5454 73.9123 83.0119 72.854C83.4785 71.7959 84.0134 70.7717 84.6164 69.7818C85.9364 67.4946 87.5977 65.207 89.5891 62.9312C91.5804 60.6554 93.7878 58.698 96.2229 57.0708C98.6466 55.4323 101.23 54.2832 103.949 53.6119C106.658 52.9291 109.423 53.1115 112.234 54.147C114.475 54.9663 116.353 56.2635 117.855 58.0386C118.333 58.6986 118.709 59.0856 118.993 59.188C119.267 59.2901 119.87 59.0618 120.791 58.5044C121.497 58.1176 122.157 57.7086 122.794 57.2876C123.249 56.9918 123.738 56.6952 124.228 56.4107C124.512 56.024 124.763 55.6148 125.047 55.2281C127.232 52.2694 131.783 55.5575 129.587 58.5162C124.501 65.3665 120.097 72.7175 116.592 80.5122C116.33 81.0925 116.08 81.6843 115.829 82.2759C116.535 81.7867 117.252 81.3094 117.957 80.8316C121.473 78.4533 124.99 76.0633 128.506 73.6851C129.098 72.8772 129.997 72.6039 130.885 72.729C131.124 71.9895 131.328 71.2384 131.578 70.5103C132.796 68.1661 133.866 65.7419 134.469 63.2271C136.176 59.4606 138.235 55.8302 140.716 52.3482C141.217 51.6428 141.74 50.9377 142.321 50.2437C142.889 49.561 143.459 48.8668 144.028 48.1841C144.619 47.6721 145.188 47.5126 145.757 47.7173C146.098 47.8539 146.44 48.0813 146.759 48.3999C147.078 48.7298 147.362 49.0032 147.589 49.2535C148.158 49.8679 148.42 50.3003 148.374 50.5279C148.34 50.7441 148.01 51.1653 147.396 51.7456C147.145 51.9732 146.918 52.2239 146.713 52.4742C146.497 52.713 146.281 52.9521 146.03 53.191C143.265 56.5706 141.012 60.1664 139.26 63.9556C137.496 67.7563 135.96 71.6826 134.617 75.7564C134.458 76.1887 134.549 76.4617 134.913 76.5982C135.05 76.6547 135.243 76.5635 135.493 76.3247C136.426 75.5168 137.439 74.5038 138.52 73.2749C139.999 71.6249 141.752 69.7026 143.755 67.5064C145.758 65.2989 147.885 63.1137 150.115 60.9175C152.357 58.7213 154.611 56.6612 156.875 54.7154C159.14 52.781 161.222 51.302 163.1 50.2779C164.09 49.7431 164.931 49.6061 165.637 49.8677C166.126 50.0498 166.582 50.3461 166.991 50.7329C168.038 51.7684 168.641 52.6447 168.778 53.3501C168.914 54.0442 168.698 54.9543 168.141 56.0464C167.39 57.6395 166.65 59.2673 165.922 60.9058C165.194 62.5671 164.465 64.1829 163.714 65.7759C162.838 67.7445 162.018 69.7025 161.256 71.6597C160.494 73.6282 159.777 75.62 159.106 77.6568L158.889 78.2476C158.786 78.5093 158.832 78.7032 159.026 78.8511L159.231 78.9312C159.447 79.0107 159.64 78.9646 159.833 78.7828C160.015 78.6121 160.209 78.4753 160.403 78.3843C164.033 75.0047 167.72 71.7617 171.441 68.7007C175.162 65.6169 179.27 63.0341 183.787 60.9517C184.584 60.5079 185.369 60.428 186.143 60.7124C186.7 60.9172 187.269 61.338 187.838 61.941C188.452 62.6577 188.885 63.3635 189.147 64.0689C189.408 64.7744 189.295 65.5716 188.817 66.4478C188.1 67.7336 187.395 68.9969 186.7 70.2486C185.995 71.5003 185.255 72.7521 184.482 74.0152C179.498 82.3675 175.662 91.1747 172.965 100.449C172.851 100.733 172.715 101.291 172.533 102.122C172.351 102.964 172.203 103.817 172.067 104.705C171.941 105.592 171.896 106.412 171.942 107.163C171.976 107.914 172.192 108.346 172.533 108.471C172.875 108.596 173.444 108.506 174.195 108.165C174.957 107.846 175.765 107.425 176.63 106.924C177.495 106.435 178.291 105.934 179.03 105.433C179.782 104.932 180.306 104.58 180.624 104.364C182.354 103.124 184.06 101.86 185.733 100.551C187.405 99.2654 189.067 97.9795 190.729 96.7163L194.075 94.2681C193.208 93.7757 192.531 93.1116 192.06 92.2788C191.411 91.1409 191.252 89.8206 191.559 88.3072C191.843 87.1012 192.219 85.975 192.686 84.9283C193.152 83.87 193.699 82.845 194.302 81.855C195.633 79.5679 197.306 77.2919 199.32 75.0162C201.334 72.7517 203.576 70.8058 206.045 69.19C208.503 67.5628 211.132 66.4245 213.897 65.7759C216.662 65.1159 219.473 65.3212 222.352 66.3794C224.65 67.2215 226.573 68.5413 228.11 70.3277C228.599 70.9877 228.986 71.3864 229.271 71.4888C229.555 71.5909 230.17 71.3753 231.103 70.8179C231.82 70.4311 232.502 70.0319 233.139 69.6109C233.776 69.2012 234.459 68.8031 235.176 68.4048L237.497 67.062C238.26 66.7776 238.874 66.5841 239.363 66.4703C239.853 66.3679 240.308 66.3911 240.74 66.5503C241.105 66.6869 241.435 66.8915 241.742 67.1646C242.05 67.4377 242.414 67.7791 242.846 68.1773C243.938 69.3949 244.109 70.7265 243.335 72.149C241.492 75.6196 239.671 79.0907 237.873 82.5386C236.064 85.9865 234.243 89.457 232.4 92.939C232.33 93.0679 232.263 93.1973 232.196 93.3267C234.086 93.0578 235.884 92.5708 237.6 91.8579C239.807 90.9362 241.947 89.7644 244.03 88.3306C246.886 86.3393 249.628 84.1656 252.268 81.8443C254.919 79.5229 257.548 77.2351 260.165 74.982C260.745 74.5155 261.03 74.0494 261.041 73.5943C261.041 73.1391 261.031 72.6382 260.974 72.1148C260.155 67.2444 259.722 62.317 259.688 57.3101C259.642 52.3147 259.721 47.3534 259.904 42.4263C259.869 41.4023 260.006 40.2641 260.302 39.024C260.404 38.2957 260.905 37.9312 261.804 37.9312C262.191 37.9881 262.51 38.0677 262.76 38.1587L263.579 38.4546C264.217 38.6936 264.615 38.9439 264.763 39.2056C264.911 39.4674 264.933 40.059 264.854 40.9576C264.808 41.5265 264.751 42.6194 264.683 44.2466C264.615 45.8738 264.569 47.7285 264.524 49.8335C264.478 51.9272 264.466 54.1236 264.478 56.4107C264.489 58.6979 264.546 60.8151 264.649 62.7495C264.751 64.6954 264.887 66.3114 265.07 67.5972C265.252 68.8944 265.48 69.5885 265.776 69.691C266.071 69.7933 266.276 69.7477 266.436 69.5542C266.857 69.2925 267.266 68.9736 267.642 68.5982C268.029 68.2341 268.416 67.9152 268.848 67.6421C273.058 63.9439 277.405 60.4851 281.911 57.2193C286.406 53.9648 290.98 50.7894 295.623 47.6714C295.817 47.5805 296.01 47.4559 296.181 47.3081C296.351 47.1603 296.545 47.0349 296.738 46.9439C297.046 46.796 297.364 46.7954 297.717 46.9204C297.933 47.0001 298.206 47.2057 298.536 47.5357C298.855 47.877 299.061 48.1271 299.152 48.3433C299.788 49.2531 300.062 49.9017 299.971 50.2886C299.868 50.6755 299.39 51.1307 298.536 51.6656C293.313 55.2387 288.204 58.9032 283.208 62.647C278.201 66.3794 273.274 70.3165 268.415 74.4585C268.222 74.5496 268.04 74.6977 267.892 74.8912C267.733 75.0959 267.562 75.2331 267.358 75.3355C266.686 75.8362 266.424 76.5527 266.583 77.4517C266.902 79.682 267.277 81.9013 267.698 84.0747C268.119 86.2595 268.677 88.4101 269.36 90.5152C269.633 91.5507 270.202 92.7117 271.067 93.9976C271.943 95.2947 272.876 96.1142 273.877 96.4898C274.89 96.8653 276.268 96.5922 278.031 95.6704C279.795 94.7487 281.581 93.5645 283.379 92.1079C285.177 90.6628 286.839 89.2067 288.409 87.7388C289.957 86.2823 291.083 85.1666 291.766 84.4156C292.426 83.7328 293.051 83.0727 293.655 82.4468C294.246 81.821 294.872 81.1608 295.532 80.4781C296.312 79.7237 297.067 79.2491 297.795 79.0572C297.738 78.2467 297.842 77.4115 298.105 76.5415C299.277 72.2516 300.744 68.0978 302.496 64.0923C304.249 60.0982 306.457 56.2747 309.109 52.5992C309.621 51.8937 310.155 51.1995 310.736 50.5054C311.316 49.8226 311.896 49.1393 312.465 48.4566C313.068 47.9447 313.649 47.7855 314.229 48.0015C314.593 48.1267 314.935 48.3655 315.265 48.6841C315.595 49.0026 315.879 49.2874 316.117 49.5376C316.698 50.1633 316.971 50.5961 316.926 50.8238C316.892 51.0514 316.55 51.4612 315.936 52.0415C315.685 52.2805 315.458 52.5197 315.241 52.7701C315.014 53.0089 314.797 53.248 314.547 53.4869C311.759 56.8551 309.484 60.4398 307.72 64.229C305.956 68.0296 304.42 71.9552 303.077 76.0288C302.918 76.4611 303.02 76.7458 303.384 76.8824C303.521 76.9279 303.715 76.8489 303.965 76.6099C304.898 75.8134 305.933 74.8115 307.026 73.5826C308.516 71.9439 310.292 70.0213 312.318 67.8365C314.354 65.6516 316.494 63.4666 318.758 61.2818C321.034 59.0969 323.31 57.0483 325.609 55.1138C327.907 53.191 330.023 51.7232 331.935 50.7105C332.947 50.1871 333.813 50.0612 334.53 50.3228C335.03 50.5049 335.497 50.8015 335.918 51.1997C336.988 52.2578 337.613 53.134 337.761 53.8394C337.909 54.5448 337.693 55.4552 337.136 56.5474C336.385 58.1405 335.645 59.7681 334.916 61.4068C334.188 63.0567 333.448 64.6731 332.697 66.2662C331.821 68.2346 331.002 70.1918 330.239 72.149C329.477 74.1175 328.772 76.1092 328.101 78.146L327.884 78.7378C327.793 78.9994 327.839 79.1925 328.032 79.3404L328.237 79.4204C328.464 79.5001 328.658 79.4541 328.852 79.272C329.045 79.1015 329.227 78.9645 329.432 78.8736C333.107 75.494 336.829 72.2855 340.607 69.2359C344.385 66.1863 348.549 63.6256 353.147 61.566C353.954 61.1337 354.762 61.0658 355.547 61.3501C356.116 61.555 356.697 61.9759 357.288 62.5904C357.926 63.3186 358.37 64.0353 358.643 64.7408C358.904 65.4576 358.802 66.2543 358.324 67.1304C357.608 68.4163 356.89 69.6908 356.196 70.9312C355.479 72.1829 354.739 73.4348 353.954 74.6978C351.496 78.7715 349.403 82.9932 347.514 87.2945C347.65 87.704 347.559 88.1935 347.15 88.6372C345.966 89.9003 344.987 91.3799 344.487 93.064C344.339 93.5874 344.293 94.0654 344.293 94.6001C344.305 94.6797 344.35 94.7254 344.384 94.7935C344.999 94.2928 346 93.9627 346.683 93.6099C347.422 93.223 348.174 92.8477 348.925 92.4722C350.495 91.6871 352.077 90.9136 353.67 90.1626C358.347 87.9551 363.103 85.9523 367.905 84.0406C367.382 83.6195 366.938 83.1182 366.631 82.481C366.085 81.3545 365.983 80.0007 366.335 78.4419C366.654 77.213 367.041 76.0402 367.519 74.9478C367.985 73.8441 368.531 72.7742 369.134 71.7388C370.454 69.3378 372.105 66.9367 374.062 64.5357C376.019 62.1349 378.169 60.0526 380.525 58.3003C382.869 56.5366 385.35 55.273 387.933 54.4878C390.504 53.7027 393.111 53.7824 395.728 54.7495C397.81 55.5233 399.54 56.7867 400.894 58.5503C401.315 59.2101 401.656 59.5855 401.918 59.688C402.169 59.7791 402.749 59.5294 403.637 58.9263C404.32 58.4939 404.957 58.0611 405.572 57.606C406.174 57.1623 406.834 56.718 407.505 56.2857L409.713 54.8179C410.43 54.4993 411.011 54.2718 411.466 54.1353C411.91 54.0102 412.342 54.0099 412.729 54.1578C413.059 54.2829 413.354 54.488 413.627 54.7495C413.9 55.0113 414.22 55.3529 414.607 55.7398C415.562 56.9346 415.665 58.2892 414.891 59.7798C413.036 63.4098 411.203 67.0395 409.405 70.6353C407.596 74.2311 405.764 77.8618 403.909 81.4917C403.739 81.8215 403.591 82.1629 403.444 82.4927C403.341 82.9593 403.193 83.4148 403.102 83.8814C403.056 84.1315 403.022 84.393 402.965 84.6431C403.067 84.6317 403.158 84.6092 403.249 84.5865C405.229 84.1768 407.483 83.4368 409.588 82.6744C411.898 81.8437 414.185 80.968 416.495 80.1714C416.894 78.7376 417.234 77.3148 417.69 75.8697C419.522 70.1914 421.548 64.5813 423.755 59.0396C425.951 53.4979 428.295 48.0014 430.787 42.562C432.392 39.0914 434.043 35.6549 435.727 32.2867C437.411 28.9185 439.163 25.5275 440.984 22.1138ZM46.757 1.81302C47.326 0.254051 48.9308 -0.257807 50.4328 0.117712C51.5136 0.390813 52.4692 0.891257 53.3225 1.60795C54.3921 2.50692 55.0751 4.39587 53.9826 5.60209C53.6071 6.01173 53.1976 6.37603 52.8108 6.78568C52.9359 6.99048 53.0268 7.11576 53.1633 7.3433C53.4592 7.77571 53.4824 8.20839 53.2776 8.62943C53.0614 9.06175 52.8903 9.47112 52.7424 9.85795C46.7683 27.0407 40.9076 44.3259 35.1838 61.7134C34.9335 62.3848 34.7064 63.2276 34.5129 64.1949C34.3309 65.1847 34.6726 65.8333 35.5373 66.1519L40.0891 67.3238C44.231 68.4048 48.3158 69.4863 52.344 70.5787C56.3723 71.6711 60.4695 72.8774 64.6457 74.1861L65.5324 74.5044C66.568 74.6637 67.263 74.6755 67.593 74.5162C67.9343 74.3681 68.3206 73.8215 68.7756 72.8775C69.5949 71.2844 70.3122 69.702 70.9494 68.1089C71.5867 66.5272 72.304 64.9344 73.1233 63.3413C76.4915 56.2748 79.8706 49.2534 83.2844 42.2437C86.6754 35.2455 90.3512 28.327 94.3225 21.4654C94.8004 20.7598 95.3809 20.5324 96.0637 20.7828C96.4505 20.9307 96.8716 21.1693 97.3039 21.4878C97.7362 21.8291 98.0662 22.1364 98.2824 22.4322C98.9766 23.2515 99.3868 23.8777 99.5119 24.3101C99.6256 24.7425 99.3861 25.4593 98.8059 26.4605C94.6979 34.5967 90.7155 42.6535 86.8352 50.6304C82.9662 58.6301 79.0854 66.6644 75.2278 74.7779C74.773 75.7102 74.6138 76.3472 74.7727 76.6773C74.9206 77.0187 75.5243 77.4292 76.5598 77.9185C76.8442 78.0209 77.1515 78.1116 77.4699 78.1685C77.7658 78.2254 78.0275 78.2936 78.2209 78.3619C79.5522 78.9649 80.4288 79.6019 80.8498 80.2505V80.2622C81.2708 80.9108 81.4528 81.9349 81.3733 83.357C81.2481 84.3015 80.5991 84.6888 79.4612 84.4839C78.3119 84.2791 77.265 84.0405 76.3205 83.7447C75.3761 83.4602 74.3294 83.2093 73.1916 83.0044C72.3497 82.9134 71.7234 83.2435 71.3479 83.9829C71.1999 84.3699 71.029 84.7575 70.8469 85.1216C70.6422 85.497 70.4605 85.9294 70.2785 86.4185C68.4009 90.9361 66.5794 95.4425 64.8156 99.9488C63.0405 104.443 61.2205 108.95 59.343 113.467L58.5344 115.664C58.1588 116.972 57.1687 117.723 55.5529 117.894C54.9955 117.905 54.5176 117.905 54.1535 117.882C53.7666 117.848 53.4817 117.791 53.2883 117.723C52.1279 117.302 51.8889 116.107 52.6057 114.15C54.3922 109.28 56.2016 104.454 58.011 99.6978C59.8202 94.9414 61.6865 90.0826 63.6096 85.1441C64.224 83.4829 64.6107 82.3563 64.7815 81.7417C64.9521 81.1387 64.452 80.6263 63.2688 80.1939L62.176 79.7954C61.7322 79.6361 61.2541 79.5108 60.7307 79.4312C56.4863 78.316 52.2759 77.1442 48.0656 75.938C43.8553 74.7204 39.5877 73.5375 35.2522 72.3882C34.9449 72.2744 34.6721 72.2052 34.4104 72.1597C34.16 72.1142 33.8755 72.0346 33.591 71.9322C32.601 71.9094 31.9869 72.2289 31.7365 72.9117C31.3497 73.6626 31.0076 74.4473 30.7004 75.2779L24.6467 91.7329L25.091 91.8921L18.9572 108.574C18.559 109.655 17.9106 110.418 17.0344 110.862C16.8296 110.964 16.6129 110.964 16.3967 111.021C15.4182 112.523 14.3712 113.968 13.0969 115.288C11.2534 117.188 8.87456 119.475 6.20041 120.067C3.48088 120.67 0.966443 119.111 0.260953 116.437C-0.387588 114.013 0.295005 111.248 0.97775 108.904C2.63917 103.18 6.3038 98.1956 9.89962 93.5415C13.8367 88.4666 18.0466 83.6077 22.2453 78.7603C22.3249 78.6693 22.4274 78.6348 22.507 78.5552C23.2239 76.4045 23.93 74.2537 24.5559 72.0689C24.8403 71.2952 24.8746 70.7714 24.6242 70.521C24.3966 70.2594 23.9298 70.0096 23.2473 69.7593C22.6898 69.7821 22.1437 69.7364 21.6203 69.6568C21.0969 69.5657 20.5728 69.4972 20.0608 69.4175C19.0144 69.2583 18.3318 69.1107 18.0471 69.0083C16.7727 68.5304 15.9532 67.3013 15.5891 65.2759C15.5094 63.6943 16.226 62.9657 17.7278 63.0679C19.0478 63.1248 20.3798 63.2501 21.7453 63.4663C23.0994 63.6939 24.4766 63.8878 25.842 64.0699C26.7408 64.0584 27.2987 63.7164 27.549 63.0337C28.1747 61.9415 28.6066 60.7582 28.8342 59.5181C31.5425 50.6536 34.479 41.9367 37.6311 33.3453C39.9297 27.0866 42.1941 20.748 44.4699 14.4097C41.0789 17.027 37.4486 19.3261 33.591 21.272C29.8017 23.1723 25.8641 24.6176 21.8244 25.8579C18.1149 26.9958 14.3479 28.1219 11.5373 30.9439C8.94283 33.5608 5.31363 29.1233 7.8967 26.5288C10.7415 23.6728 14.4851 22.2051 18.2629 21.0103C22.0976 19.7927 25.8755 18.5862 29.5168 16.8794C36.0598 13.8184 42.0345 9.55116 47.1438 4.44193C46.6431 3.65678 46.4498 2.63232 46.757 1.81302ZM17.7512 92.7456C14.9177 96.1822 12.2089 99.7212 9.84201 103.454C8.62449 105.365 7.57802 107.345 6.81564 109.473C6.70185 109.803 6.13239 112.477 5.88205 113.957C6.16653 113.729 6.51974 113.513 6.78146 113.308C7.62348 112.637 8.44224 111.919 9.18185 111.134C10.5701 109.678 11.7771 107.982 12.7102 106.196H12.7209C12.9371 105.775 13.2448 105.41 13.5861 105.103C13.5976 105.046 13.632 104.956 13.632 104.956L17.7512 92.7456ZM224.002 69.771C222.136 69.0769 220.155 68.883 218.05 69.1675C215.956 69.4634 214.044 70.0551 212.315 70.9654C208.685 72.8998 205.567 75.3013 203.007 78.1802C200.435 81.0819 198.261 84.3934 196.475 88.1372L195.997 89.4224C195.918 89.65 195.861 89.9461 195.838 90.3443C195.827 90.7424 195.951 91.0045 196.236 91.107C196.668 91.2663 197.601 91.0045 199.024 90.356C200.446 89.696 202.131 88.8192 204.076 87.7495C206.022 86.6685 208.093 85.4516 210.301 84.1089C212.509 82.7662 214.579 81.4456 216.514 80.1597C218.46 78.8853 220.144 77.7819 221.589 76.8374C223.034 75.9157 223.991 75.2778 224.423 74.9478C224.628 74.8681 224.81 74.7548 224.981 74.607C225.163 74.4705 225.345 74.3562 225.538 74.2652L225.527 74.2544C225.982 73.9244 226.197 73.4343 226.197 72.7857C226.163 71.3068 225.435 70.2945 224.002 69.771ZM399.301 58.6187C397.435 57.9246 395.443 57.7307 393.338 58.0152C391.244 58.311 389.332 58.9037 387.603 59.814C383.962 61.7484 380.855 64.1491 378.295 67.0279C375.723 69.9182 373.549 73.2303 371.763 76.9742L371.285 78.2593C371.206 78.4869 371.149 78.783 371.126 79.1812C371.115 79.5794 371.239 79.8414 371.524 79.9439C371.945 80.1032 372.879 79.8415 374.301 79.1929C375.723 78.5329 377.407 77.656 379.353 76.5865C381.299 75.5055 383.37 74.2885 385.577 72.9458C387.785 71.6031 389.856 70.2824 391.79 68.9966C393.736 67.7223 395.42 66.6188 396.865 65.6744C398.311 64.7526 399.256 64.1147 399.699 63.7847C399.904 63.7051 400.086 63.5918 400.257 63.4439C400.439 63.3073 400.621 63.1931 400.815 63.1021H400.825C401.281 62.7721 401.497 62.2829 401.497 61.6343C401.463 60.1436 400.735 59.1421 399.301 58.6187ZM114.351 57.6744C112.485 56.9802 110.504 56.7864 108.399 57.0708C106.305 57.3667 104.393 57.9584 102.663 58.8687C99.022 60.8031 95.916 63.2047 93.3557 66.0835C90.784 68.9739 88.61 72.2851 86.8235 76.0288L86.3459 77.315C86.2663 77.5426 86.2095 77.8386 86.1867 78.2369C86.1754 78.6349 86.2999 78.8971 86.5842 78.9995C87.0052 79.1589 87.9391 78.8962 89.3615 78.2476C90.7838 77.5876 92.4677 76.7116 94.4133 75.6421C96.3591 74.5611 98.4304 73.3433 100.638 72.0005C102.846 70.6578 104.917 69.3382 106.852 68.0523C108.798 66.7779 110.482 65.6735 111.927 64.729C113.372 63.8075 114.316 63.1703 114.76 62.8404C114.965 62.7607 115.147 62.6465 115.318 62.4986C115.5 62.3621 115.682 62.2487 115.875 62.1578C116.33 61.8278 116.546 61.3385 116.546 60.69C116.512 59.2108 115.784 58.1979 114.351 57.6744ZM152.892 38.0103C162.803 37.8396 169.916 40.491 176.186 42.8238C178.826 43.8138 181.318 44.7357 183.878 45.4185C195.451 48.5023 208.89 46.4427 223.831 39.2964L225.265 42.2896C209.596 49.7885 195.383 51.9161 183.036 48.6275C180.317 47.8992 177.756 46.944 175.036 45.9312C168.744 43.587 162.246 41.1625 152.96 41.3218C147.84 41.4129 142.696 42.2894 137.655 43.9165H137.644L136.619 40.7642C141.968 39.0346 147.441 38.1014 152.892 38.0103ZM325.233 38.6597C341.972 37.2032 358.699 38.6369 374.938 42.9156L374.096 46.1245C358.222 41.9483 341.881 40.5485 325.529 41.9595C321.307 42.3236 316.346 42.9268 311.623 44.5767H311.612L310.519 41.4478C315.583 39.6726 320.795 39.0466 325.233 38.6597Z" fill="#E64062"/>
</svg>
